<svg id="Behance" xmlns="http://www.w3.org/2000/svg" width="32.687" height="32.687" viewBox="0 0 32.687 32.687">
  <path id="Trazado_1748" data-name="Trazado 1748" d="M32.687-46.672a4.371,4.371,0,0,1-4.358,4.358H4.358A4.371,4.371,0,0,1,0-46.672v-23.97A4.371,4.371,0,0,1,4.358-75h23.97a4.371,4.371,0,0,1,4.358,4.358Z" transform="translate(0 75)" fill="#2d2d2c"/>
  <path id="Trazado_1749" data-name="Trazado 1749" d="M23.311-40.72a2.65,2.65,0,0,1-1.119.192H19.511v-2.905H22.23a2.82,2.82,0,0,1,1.1.185,1.167,1.167,0,0,1,.7,1.169,1.369,1.369,0,0,1-.726,1.36m-3.8-6.919h2.4a4.24,4.24,0,0,1,1.306.17.978.978,0,0,1,.592,1.008,1.025,1.025,0,0,1-.448.955,2.248,2.248,0,0,1-1.168.271H19.511Zm5.15,3.156a2.644,2.644,0,0,0,.843-.62,2.4,2.4,0,0,0,.51-1.6,2.747,2.747,0,0,0-.506-1.663,3.405,3.405,0,0,0-2.862-1.161H17.31v10.893h4.975a7.76,7.76,0,0,0,1.56-.146,3.058,3.058,0,0,0,1.247-.547,3.028,3.028,0,0,0,.782-.857,3.147,3.147,0,0,0,.492-1.737,2.856,2.856,0,0,0-.43-1.6,2.476,2.476,0,0,0-1.277-.962" transform="translate(-9.766 60.631)" fill="#fff"/>
  <path id="Trazado_1750" data-name="Trazado 1750" d="M43.508-47.009H48.24v-1.356H43.508Z" transform="translate(-24.547 59.973)" fill="#fff"/>
  <path id="Trazado_1751" data-name="Trazado 1751" d="M41.924-40.067a2.181,2.181,0,0,1,.569-1.247,1.709,1.709,0,0,1,1.274-.46,1.9,1.9,0,0,1,1.268.433,1.759,1.759,0,0,1,.568,1.274ZM47.1-41.942a3.287,3.287,0,0,0-1.41-1.192,4.7,4.7,0,0,0-1.92-.378,3.973,3.973,0,0,0-2.92,1.117,4.333,4.333,0,0,0-1.124,3.212,3.872,3.872,0,0,0,1.247,3.225,4.48,4.48,0,0,0,2.876.991,4,4,0,0,0,3.072-1.174,2.636,2.636,0,0,0,.791-1.456h-2.18a1.757,1.757,0,0,1-.441.554,1.827,1.827,0,0,1-1.184.369,2.19,2.19,0,0,1-1.178-.3,1.925,1.925,0,0,1-.856-1.7h5.949a10.181,10.181,0,0,0-.071-1.6,3.887,3.887,0,0,0-.652-1.666" transform="translate(-22.412 57.235)" fill="#fff"/>
</svg>
