<svg id="bell-notificaciones" xmlns="http://www.w3.org/2000/svg" width="30" height="30" viewBox="0 0 30 30">
  <rect id="Rectángulo_1166" data-name="Rectángulo 1166" width="30" height="30" fill="none"/>
  <path id="Trazado_1947" data-name="Trazado 1947" d="M-4.841,29.046a.378.378,0,0,1-.377-.377V25.051a8.113,8.113,0,0,0-7.671-8.122,7.909,7.909,0,0,0-5.817,2.227,7.9,7.9,0,0,0-2.433,5.729v3.785a.378.378,0,0,1-.377.377A2.391,2.391,0,0,0-23.9,31.434v2.584A1,1,0,0,0-22.9,35.023h5.5a4.341,4.341,0,0,0,4.22,3.352,4.339,4.339,0,0,0,4.216-3.352h5.5a1.006,1.006,0,0,0,1.006-1.006V31.434A2.391,2.391,0,0,0-4.841,29.046Zm-8.338,7.318a2.322,2.322,0,0,1-2.1-1.341h4.209A2.328,2.328,0,0,1-13.179,36.364Zm8.715-3.352h-17.43V31.434a.377.377,0,0,1,.377-.377,2.391,2.391,0,0,0,2.388-2.388V24.884A5.9,5.9,0,0,1-17.31,20.6a5.9,5.9,0,0,1,4.349-1.664A6.086,6.086,0,0,1-7.23,25.051v3.618a2.391,2.391,0,0,0,2.388,2.388.377.377,0,0,1,.377.377Z" transform="translate(27.905 -12.924)" fill="#2d2d2c"/>
</svg>
