<svg id="caneca_de_basura" data-name="caneca de basura" xmlns="http://www.w3.org/2000/svg" width="24" height="24" viewBox="0 0 24 24">
  <rect id="Rectángulo_1090" data-name="Rectángulo 1090" width="24" height="24" fill="none"/>
  <g id="_9" data-name="9" transform="translate(2.274 1.145)">
    <path id="Trazado_1927" data-name="Trazado 1927" d="M159.075,509.094H149.31a1.405,1.405,0,0,1-1.4-1.279l-1.537-16.976h15.64l-1.537,16.976A1.406,1.406,0,0,1,159.075,509.094Z" transform="translate(-144.468 -487.384)" fill="none" stroke="rgba(45,45,44,0.5)" stroke-linecap="round" stroke-linejoin="round" stroke-width="1.2"/>
    <path id="Rectángulo_1089" data-name="Rectángulo 1089" d="M2.507,0H5.073A2.507,2.507,0,0,1,7.579,2.507v.959a0,0,0,0,1,0,0H0a0,0,0,0,1,0,0V2.507A2.507,2.507,0,0,1,2.507,0Z" transform="translate(5.936)" fill="none" stroke="rgba(45,45,44,0.5)" stroke-linecap="round" stroke-linejoin="round" stroke-width="1.2"/>
    <line id="Línea_594" data-name="Línea 594" x2="0.551" y2="8.63" transform="translate(5.949 8.268)" fill="none" stroke="rgba(45,45,44,0.5)" stroke-linecap="round" stroke-linejoin="round" stroke-width="1.2"/>
    <line id="Línea_595" data-name="Línea 595" y2="8.63" transform="translate(9.725 8.268)" fill="none" stroke="rgba(45,45,44,0.5)" stroke-linecap="round" stroke-linejoin="round" stroke-width="1.2"/>
    <line id="Línea_596" data-name="Línea 596" x1="0.551" y2="8.63" transform="translate(12.951 8.268)" fill="none" stroke="rgba(45,45,44,0.5)" stroke-linecap="round" stroke-linejoin="round" stroke-width="1.2"/>
    <line id="Línea_597" data-name="Línea 597" x2="19.451" transform="translate(0 3.457)" fill="none" stroke="rgba(45,45,44,0.5)" stroke-linecap="round" stroke-linejoin="round" stroke-width="1.2"/>
  </g>
</svg>
