<svg id="Componente_2612_1" data-name="Componente 2612 – 1" xmlns="http://www.w3.org/2000/svg" xmlns:xlink="http://www.w3.org/1999/xlink" width="214.21" height="91.537" viewBox="0 0 214.21 91.537">
  <defs>
    <clipPath id="clip-path">
      <rect id="Rectángulo_1591" data-name="Rectángulo 1591" width="214.21" height="91.537" fill="#fff"/>
    </clipPath>
  </defs>
  <g id="Grupo_7646" data-name="Grupo 7646" clip-path="url(#clip-path)">
    <rect id="Rectángulo_1624" data-name="Rectángulo 1624" width="7.996" height="62.823" rx="2" transform="translate(96.867 5.73)" fill="#fff"/>
    <path id="Trazado_2094" data-name="Trazado 2094" d="M1038.513-894.468a22.207,22.207,0,0,0-16.561-7.266,23.623,23.623,0,0,0-17.032,7.151,24.5,24.5,0,0,0-6.946,17.242,24.625,24.625,0,0,0,6.943,17.279,23.57,23.57,0,0,0,17.035,7.2,22.207,22.207,0,0,0,16.561-7.267v5.516a1.21,1.21,0,0,0,1.21,1.21h5.575a1.211,1.211,0,0,0,1.211-1.21v-45.159a1.211,1.211,0,0,0-1.211-1.21h-5.575a1.211,1.211,0,0,0-1.21,1.21ZM1022.2-860.53a16.431,16.431,0,0,1-16.4-16.811,16.432,16.432,0,0,1,16.4-16.814,16.669,16.669,0,0,1,16.482,16.814A16.668,16.668,0,0,1,1022.2-860.53Z" transform="translate(-888.295 921.96)" fill="#fff"/>
    <path id="Trazado_2095" data-name="Trazado 2095" d="M1485.67-901.734a22.383,22.383,0,0,0-16.564,7.188v-5.23a1.211,1.211,0,0,0-1.211-1.21h-5.575a1.211,1.211,0,0,0-1.21,1.21v65.134a1.211,1.211,0,0,0,1.21,1.211h5.575a1.211,1.211,0,0,0,1.211-1.211V-860.1a22.3,22.3,0,0,0,16.564,7.23,23.588,23.588,0,0,0,17.032-7.164,24.622,24.622,0,0,0,6.946-17.311A24.215,24.215,0,0,0,1485.67-901.734Zm-.25,41.2a16.707,16.707,0,0,1-16.561-16.811,16.664,16.664,0,0,1,16.561-16.729,16.389,16.389,0,0,1,16.4,16.729A16.626,16.626,0,0,1,1485.421-860.53Z" transform="translate(-1297.438 921.96)" fill="#fff"/>
    <g id="Grupo_8480" data-name="Grupo 8480" transform="translate(2.383 5.73)">
      <path id="Trazado_2090" data-name="Trazado 2090" d="M167.106-983.259l-5.24-2.171a1.2,1.2,0,0,0-1.567.631,22.915,22.915,0,0,1-4.423,6.724,22.216,22.216,0,0,1-16.3,6.871,22.216,22.216,0,0,1-16.3-6.871,23.791,23.791,0,0,1-6.413-16.5,23.957,23.957,0,0,1,6.881-17.188,22.051,22.051,0,0,1,15.68-6.352h.3a22.051,22.051,0,0,1,15.68,6.352,22.787,22.787,0,0,1,4.889,7.244,1.2,1.2,0,0,0,1.567.63l5.22-2.162a1.217,1.217,0,0,0,.642-1.619,31.171,31.171,0,0,0-6.2-9.18,30.394,30.394,0,0,0-21.945-9.219H108.486a30.393,30.393,0,0,0-21.945,9.219,31.627,31.627,0,0,0-8.929,22.235,31.546,31.546,0,0,0,8.865,22.128,30.408,30.408,0,0,0,22.01,9.241h31.092a30.408,30.408,0,0,0,22.01-9.241,31.11,31.11,0,0,0,6.161-9.15A1.217,1.217,0,0,0,167.106-983.259Z" transform="translate(-77.611 1026.073)" fill="#fff"/>
    </g>
  </g>
</svg>
