<svg id="Dribbble" xmlns="http://www.w3.org/2000/svg" width="32.687" height="32.687" viewBox="0 0 32.687 32.687">
  <path id="Trazado_1746" data-name="Trazado 1746" d="M32.687-46.672a4.371,4.371,0,0,1-4.358,4.358H4.358A4.371,4.371,0,0,1,0-46.672v-23.97A4.371,4.371,0,0,1,4.358-75h23.97a4.371,4.371,0,0,1,4.358,4.358Z" transform="translate(0 75)" fill="#2d2d2c"/>
  <path id="Trazado_1747" data-name="Trazado 1747" d="M29.19-47.58c-.045-.108-.09-.217-.137-.326-.132-.31-.274-.617-.421-.918a8.145,8.145,0,0,0,3.525-2.5,6.3,6.3,0,0,1,1.44,3.955,14.628,14.628,0,0,0-4.407-.207m1.617,5.518a27.3,27.3,0,0,0-1.232-4.519,9.172,9.172,0,0,1,3.943.276,6.328,6.328,0,0,1-2.712,4.243m-3.535,1.08a6.3,6.3,0,0,1-3.95-1.386l-.081-.065.081.065.061.046a8.574,8.574,0,0,1,4.966-3.953l.043-.013a26.287,26.287,0,0,1,1.351,4.8,6.31,6.31,0,0,1-2.47.5m-4.707-2.1a6.3,6.3,0,0,1-1.621-4.228c0-.067,0-.133.005-.2a23.2,23.2,0,0,0,6.5-.9c.181.354.354.716.513,1.076-.084.023-.166.048-.249.076a10.008,10.008,0,0,0-5.147,4.175l0,0m2.007-9.949a37.8,37.8,0,0,1,2.35,3.645,23.405,23.405,0,0,1-5.842.773,6.329,6.329,0,0,1,3.492-4.417m1.184-.422v0l-.019,0,.02-.005m1.516-.184a6.3,6.3,0,0,1,4.179,1.579,6.9,6.9,0,0,1-3.306,2.291,32.138,32.138,0,0,0-2.365-3.691,6.326,6.326,0,0,1,1.492-.179M34.1-50.194a7.285,7.285,0,0,0-.683-1.258,7.4,7.4,0,0,0-.9-1.1,7.414,7.414,0,0,0-1.1-.9,7.383,7.383,0,0,0-1.258-.684,7.412,7.412,0,0,0-1.392-.431,7.457,7.457,0,0,0-1.491-.151,7.463,7.463,0,0,0-1.493.151,7.417,7.417,0,0,0-1.392.431,7.408,7.408,0,0,0-1.259.684,7.43,7.43,0,0,0-1.1.9,7.429,7.429,0,0,0-.9,1.1,7.317,7.317,0,0,0-.683,1.258,7.376,7.376,0,0,0-.433,1.393,7.477,7.477,0,0,0-.15,1.491,7.5,7.5,0,0,0,.15,1.493,7.33,7.33,0,0,0,.433,1.391,7.337,7.337,0,0,0,.683,1.26,7.517,7.517,0,0,0,.9,1.1,7.508,7.508,0,0,0,1.1.9,7.373,7.373,0,0,0,1.259.683,7.291,7.291,0,0,0,1.392.431,7.369,7.369,0,0,0,1.493.152,7.363,7.363,0,0,0,1.491-.152,7.285,7.285,0,0,0,1.392-.431,7.349,7.349,0,0,0,1.258-.683,7.492,7.492,0,0,0,1.1-.9,7.489,7.489,0,0,0,.9-1.1,7.3,7.3,0,0,0,.683-1.26,7.394,7.394,0,0,0,.433-1.391,7.5,7.5,0,0,0,.15-1.493,7.477,7.477,0,0,0-.15-1.491,7.441,7.441,0,0,0-.433-1.393" transform="translate(-11.205 63.558)" fill="#fff"/>
</svg>
