<svg id="editar" xmlns="http://www.w3.org/2000/svg" width="24" height="24" viewBox="0 0 24 24">
  <path id="Trazado_1909" data-name="Trazado 1909" d="M0,0H24V24H0Z" fill="none"/>
  <g id="Grupo_2819" data-name="Grupo 2819" transform="translate(1.589 2.5)">
    <path id="Trazado_1869" data-name="Trazado 1869" d="M171.533-681.626l.36-.4c5.962-5.047,10.228-8.69,11.015-9.489a1.454,1.454,0,0,1,1.038-.519,1.512,1.512,0,0,1,.956.636c.523.595,1.047,1.188,1.563,1.789a1.316,1.316,0,0,1,.406.9,1.346,1.346,0,0,1-.548.887c-.753.623-4.954,4.514-10.753,9.895l-.354.315a30.168,30.168,0,0,1-3.8.6,1,1,0,0,1-.823-.22,1.07,1.07,0,0,1-.109-.933Z" transform="translate(-170.42 695.996)" fill="rgba(45,45,44,0.5)"/>
    <path id="Trazado_1870" data-name="Trazado 1870" d="M334.281-721.41a1.028,1.028,0,0,1-.653-.409c-.9-.98-1.04-1.119-2.089-2.308a.919.919,0,0,1,.087-1.4q.754-.671,1.528-1.321a.948.948,0,0,1,1.427.077q1.057,1.143,2.082,2.314a.9.9,0,0,1-.082,1.368,10.8,10.8,0,0,1-1.6,1.369C334.677-721.5,334.507-721.394,334.281-721.41Z" transform="translate(-316.119 727.135)" fill="rgba(45,45,44,0.5)"/>
  </g>
</svg>
