<svg id="Facebook" xmlns="http://www.w3.org/2000/svg" width="32.687" height="32.687" viewBox="0 0 32.687 32.687">
  <path id="Trazado_1737" data-name="Trazado 1737" d="M32.687-46.672a4.371,4.371,0,0,1-4.358,4.358H4.358A4.371,4.371,0,0,1,0-46.672v-23.97A4.371,4.371,0,0,1,4.358-75h23.97a4.371,4.371,0,0,1,4.358,4.358Z" transform="translate(0 75)" fill="#2d2d2c"/>
  <path id="Trazado_1738" data-name="Trazado 1738" d="M32.34-52.449v12.437h3.1V-51.951a.47.47,0,0,1,.519-.519h2.076v-3.115h-2.39c-3.385,0-3.305,2.729-3.305,3.136" transform="translate(-18.246 64.047)" fill="#fff"/>
  <path id="Trazado_1739" data-name="Trazado 1739" d="M35.483-40.559H28.735v-3.114H36Z" transform="translate(-16.212 57.326)" fill="#fff"/>
</svg>
