<svg xmlns="http://www.w3.org/2000/svg" width="242.657" height="253.726" viewBox="0 0 242.657 253.726">
  <g id="Grupo_1012" data-name="Grupo 1012" transform="translate(33.882 38.384)">
    <ellipse id="Elipse_790" data-name="Elipse 790" cx="120.329" cy="120.329" rx="120.329" ry="120.329" transform="translate(-32.882 -37.384)" fill="#fff" stroke="#2d2d2c" stroke-width="2"/>
    <path id="Trazado_1370" data-name="Trazado 1370" d="M67.713,0A67.713,67.713,0,1,1,0,67.713,67.713,67.713,0,0,1,67.713,0Z" transform="translate(6.74 0.001)" fill="none" stroke="#acbbeb" stroke-width="20"/>
    <ellipse id="Elipse_981" data-name="Elipse 981" cx="67.713" cy="67.713" rx="67.713" ry="67.713" transform="translate(6.74 0.001)" fill="none" stroke="#1a1818" stroke-width="1"/>
    <ellipse id="Elipse_982" data-name="Elipse 982" cx="4.318" cy="4.318" rx="4.318" ry="4.318" transform="translate(25.115 172.183)" fill="#1a1818"/>
    <ellipse id="Elipse_983" data-name="Elipse 983" cx="4.318" cy="4.318" rx="4.318" ry="4.318" transform="translate(192.915 65.278)" fill="#1a1818"/>
    <ellipse id="Elipse_984" data-name="Elipse 984" cx="7.625" cy="7.625" rx="7.625" ry="7.625" transform="translate(99.363 1.172)" fill="none" stroke="#1a1818" stroke-width="1"/>
    <ellipse id="Elipse_985" data-name="Elipse 985" cx="7.625" cy="7.625" rx="7.625" ry="7.625" transform="translate(0 49.564)" fill="none" stroke="#1a1818" stroke-width="1"/>
    <ellipse id="Elipse_986" data-name="Elipse 986" cx="7.625" cy="7.625" rx="7.625" ry="7.625" transform="translate(100.998 117.685)" fill="none" stroke="#1a1818" stroke-width="1"/>
    <g id="Grupo_1011" data-name="Grupo 1011" transform="matrix(0.998, 0.07, -0.07, 0.998, 106.777, 123.049)">
      <path id="Trazado_1357" data-name="Trazado 1357" d="M21.043,65.577,4.874,58.924,0,5.581,7.777,0,54.9,23.8l5.92,28.639L34.192,72.715Z" fill="#fff" stroke="#1a1818" stroke-width="1.5"/>
      <path id="Trazado_1358" data-name="Trazado 1358" d="M0,20.447,26.6,0l9.616,11.423L9.623,32.051Z" transform="translate(35.761 54.321)" fill="#fff" stroke="#1a1818" stroke-width="1.5"/>
      <path id="Trazado_1359" data-name="Trazado 1359" d="M0,1.053,24.58,35.686l1.445-1.193L1.467,0Z" transform="translate(3.025 2.357)" fill="#fff" stroke="#1a1818" stroke-width="1.5"/>
    </g>
    <line id="Línea_422" data-name="Línea 422" y1="106.905" x2="167.8" transform="translate(29.433 69.596)" fill="#fff" stroke="#1a1818" stroke-width="1"/>
  </g>
</svg>
