<svg xmlns="http://www.w3.org/2000/svg" width="242.657" height="242.657" viewBox="0 0 242.657 242.657">
  <g id="Grupo_1015" data-name="Grupo 1015" transform="translate(-373.108 -33.611)">
    <ellipse id="Elipse_790" data-name="Elipse 790" cx="120.329" cy="120.329" rx="120.329" ry="120.329" transform="translate(374.108 34.611)" fill="#fff" stroke="#2d2d2c" stroke-width="2"/>
    <g id="Grupo_1013" data-name="Grupo 1013" transform="translate(374.109 72.149)">
      <path id="Trazado_1385" data-name="Trazado 1385" d="M11.2,0H203.758a11.2,11.2,0,0,1,11.2,11.2V135.171a11.2,11.2,0,0,1-11.2,11.2H11.2A11.2,11.2,0,0,1,0,135.171V11.2A11.2,11.2,0,0,1,11.2,0Z" transform="translate(14.206)" fill="#aae8b9" stroke="#1a1818" stroke-width="1"/>
      <rect id="Rectángulo_727" data-name="Rectángulo 727" width="199.449" height="127.787" rx="6.55" transform="translate(23.55 10.525)" fill="#fff" stroke="#1a1818" stroke-width="1"/>
      <g id="Group_706" data-name="Group 706" transform="translate(37.369 51.201)">
        <rect id="Rectangle_360" data-name="Rectangle 360" width="47.483" height="47.483" transform="translate(0 33.576) rotate(-45)" fill="#fff" stroke="#1a1a1a" stroke-width="1"/>
        <rect id="Rectangle_366" data-name="Rectangle 366" width="47.483" height="47.483" transform="translate(13.964 33.576) rotate(-45)" fill="#1a1a1a" stroke="#1a1a1a" stroke-width="1"/>
        <rect id="Rectangle_367" data-name="Rectangle 367" width="47.483" height="47.483" transform="translate(31.191 33.576) rotate(-45)" fill="#fff" stroke="#1a1a1a" stroke-width="1"/>
        <rect id="Rectangle_373" data-name="Rectangle 373" width="47.483" height="47.483" transform="translate(52.492 33.576) rotate(-45)" fill="#1a1a1a" stroke="#1a1a1a" stroke-width="1"/>
      </g>
      <path id="Trazado_1371" data-name="Trazado 1371" d="M5.111,0H235.546a5.111,5.111,0,0,1,5.111,5.111V8.277a5.111,5.111,0,0,1-5.111,5.111H5.111A5.111,5.111,0,0,1,0,8.277V5.111A5.111,5.111,0,0,1,5.111,0Z" transform="translate(0 137.132)" fill="#aae8b9" stroke="#1a1818" stroke-width="1"/>
      <rect id="Rectángulo_729" data-name="Rectángulo 729" width="38.789" height="5.096" rx="1.367" transform="translate(99.098 137.113)" fill="#fff" stroke="#1a1818" stroke-width="1"/>
    </g>
    <g id="Grupo_1014" data-name="Grupo 1014" transform="translate(549.168 96.47)">
      <rect id="Rectángulo_730" data-name="Rectángulo 730" width="14.981" height="9.896" transform="translate(7.262 43.864)" fill="none" stroke="#1a1a1a" stroke-linecap="round" stroke-linejoin="round" stroke-width="1"/>
      <circle id="Elipse_987" data-name="Elipse 987" cx="14.684" cy="14.684" r="14.684" transform="translate(0.003)" fill="#aae8b9" stroke="#1a1818" stroke-width="1"/>
      <path id="Trazado_1360" data-name="Trazado 1360" d="M537.14,102.985a31.246,31.246,0,0,1-1.458,9.541c-1.6,4.93-5.848,11.008-5.848,11.008v5.045l-14.755.113v-5.045s-4.242-6.078-5.848-11.008a31.22,31.22,0,0,1-1.456-9.541" transform="translate(-507.771 -86.92)" fill="#aae8b9" stroke="#1a1818" stroke-width="1"/>
      <path id="Trazado_1361" data-name="Trazado 1361" d="M519.562,126.974v-4.283s5.252-3.116,0-7.165c0,0-5.5-3.583,0-7.4,0,0,4.831-2.96-.054-6.776" transform="translate(-504.876 -87.426)" fill="none" stroke="#1a1a1a" stroke-linecap="round" stroke-linejoin="round" stroke-width="1"/>
      <path id="Trazado_1362" data-name="Trazado 1362" d="M519.546,126.974v-4.283s-5.252-3.116,0-7.165c0,0,5.5-3.583,0-7.4,0,0-4.832-2.96.054-6.776" transform="translate(-504.847 -87.426)" fill="none" stroke="#1a1a1a" stroke-linecap="round" stroke-linejoin="round" stroke-width="1"/>
    </g>
  </g>
</svg>
