<svg xmlns="http://www.w3.org/2000/svg" width="242.657" height="242.657" viewBox="0 0 242.657 242.657">
  <g id="Grupo_2727" data-name="Grupo 2727" transform="translate(41.943 14.798)">
    <ellipse id="Elipse_790" data-name="Elipse 790" cx="120.329" cy="120.329" rx="120.329" ry="120.329" transform="translate(-40.943 -13.798)" fill="#fff" stroke="#2d2d2c" stroke-width="2"/>
    <ellipse id="Elipse_988" data-name="Elipse 988" cx="70.406" cy="70.406" rx="70.406" ry="70.406" transform="translate(5.442 17.879)" fill="#f68f62" stroke="#1a1818" stroke-width="1"/>
    <path id="Trazado_1363" data-name="Trazado 1363" d="M668.216,194.882a86.8,86.8,0,0,0,18.727,21.31c19.611,16,40.92,18.841,49.643,19.474a89.945,89.945,0,0,0,50.234-10.98c1.755-.982,3.858-2.278,5.954-3.705a86.046,86.046,0,0,0,29.85-35.436,85.059,85.059,0,0,0,5.587-53.473c-5.427-23.845-19.773-38.016-25.061-43.1a93.366,93.366,0,0,0-49.962-24.581" transform="translate(-664.74 -60.913)" fill="none" stroke="#f68f62" stroke-linecap="round" stroke-linejoin="round" stroke-width="9"/>
    <path id="Trazado_1364" data-name="Trazado 1364" d="M668.216,194.882a86.8,86.8,0,0,0,18.727,21.31c19.611,16,40.92,18.841,49.643,19.474,10.774.784,33.892.5,56.188-14.685a86.046,86.046,0,0,0,29.85-35.436,85.059,85.059,0,0,0,5.587-53.473c-5.427-23.845-19.773-38.016-25.061-43.1a93.366,93.366,0,0,0-49.962-24.581" transform="translate(-664.74 -60.913)" fill="none" stroke="#1a1818" stroke-linecap="round" stroke-linejoin="round" stroke-width="1"/>
    <path id="Trazado_1365" data-name="Trazado 1365" d="M689.389,209.044h81.49s-16.621-21.214-40.745-21.24C718.05,187.791,701.922,193.016,689.389,209.044Z" transform="translate(-654.285 0.022)" fill="#f68f62" stroke="#1a1818" stroke-linecap="round" stroke-linejoin="round" stroke-width="1"/>
    <path id="Trazado_1366" data-name="Trazado 1366" d="M678.221,101.9l2.657,5.092L686,109.411l4.039,2.154,3.5,5.926,8.349,5.655,4.308,8.888,6.195,5.116,3.77,5.467v4.227L714.812,162.2l9.157,8.08,8.349,9.694,7,7.811,6.464,7.809,2.154-7.54,2.963-7.811,2.692-7.54,1.616-11.042-4.039-7.54-12.388-5.373-3.133-2.976-8.988-4.308-7-5.386-5.924-2.424-3.5-7,.808-4.309,2.693-5.116.269-9.157,2.711-11.311-2.442-8.888L708.3,77.72S687,85.174,678.221,101.9Z" transform="translate(-659.8 -54.332)" fill="#fff" stroke="#1a1818" stroke-linecap="round" stroke-linejoin="round" stroke-width="1"/>
    <path id="Trazado_1367" data-name="Trazado 1367" d="M708.428,82.312v8.526l4.926,4.926h5.494V84.586L716.954,80.8Z" transform="translate(-644.885 -52.813)" fill="#fff" stroke="#1a1818" stroke-linecap="round" stroke-linejoin="round" stroke-width="1"/>
    <path id="Trazado_1368" data-name="Trazado 1368" d="M756.666,94.748l-3.41,4.169v7.01l-2.084,2.651v5.306l3.6,6.631,6.062,3.031,3.979,8.337,5.179,4.738S771.064,108.958,756.666,94.748Z" transform="translate(-623.78 -45.925)" fill="#fff" stroke="#1a1818" stroke-linecap="round" stroke-linejoin="round" stroke-width="1"/>
    <path id="Trazado_1369" data-name="Trazado 1369" d="M739.754,80.068l2.656,6.393v3.41l-1.328,2.463v3.79L742.41,102h4.926l3.6-5.872h4.927l2.117-1.334S746.255,83.3,739.754,80.068Z" transform="translate(-629.418 -53.173)" fill="#fff" stroke="#1a1818" stroke-linecap="round" stroke-linejoin="round" stroke-width="1"/>
    <ellipse id="Elipse_989" data-name="Elipse 989" cx="3.477" cy="3.477" rx="3.477" ry="3.477" transform="translate(0 129.836)" fill="#1a1818"/>
    <ellipse id="Elipse_990" data-name="Elipse 990" cx="3.477" cy="3.477" rx="3.477" ry="3.477" transform="translate(85.367 0)" fill="#1a1818"/>
  </g>
</svg>
