<svg id="Icon_socual_pinterest_32x32" xmlns="http://www.w3.org/2000/svg" width="32.687" height="32.687" viewBox="0 0 32.687 32.687">
  <path id="Trazado_1756" data-name="Trazado 1756" d="M32.687-46.672a4.371,4.371,0,0,1-4.358,4.358H4.358A4.371,4.371,0,0,1,0-46.672v-23.97A4.371,4.371,0,0,1,4.358-75h23.97a4.371,4.371,0,0,1,4.358,4.358Z" transform="translate(0 75)" fill="#2d2d2c"/>
  <path id="Trazado_1757" data-name="Trazado 1757" d="M29.845-56.44c-4.677,0-6.982,3.246-6.982,5.951,0,1.639.586,3.1,1.962,3.64a.341.341,0,0,0,.493-.239c.045-.168.153-.59.2-.765a.452.452,0,0,0-.142-.531,2.7,2.7,0,0,1-.649-1.868,4.591,4.591,0,0,1,4.847-4.563c2.644,0,4.1,1.563,4.1,3.651,0,2.747-1.256,5.228-3.121,5.228a1.617,1.617,0,0,1-1.555-2c.3-1.207,1-2.51,1-3.381,0-.779-.484-1.256-1.459-1.256-1.214,0-1.859.88-1.859,2.292a4.008,4.008,0,0,0,.274,1.508s-1.171,4.4-1.266,5.191a19.075,19.075,0,0,0-.03,3.62.133.133,0,0,0,.234.054,10.1,10.1,0,0,0,1.777-3.117c.121-.424.692-2.619.692-2.619a2.969,2.969,0,0,0,2.405,1.364c3.164,0,5.263-2.969,5.263-6.706,0-2.826-2.424-5.457-6.183-5.457" transform="translate(-12.898 64.527)" fill="#fff"/>
</svg>
