<svg id="Icon_social_Youtube_32x32" xmlns="http://www.w3.org/2000/svg" width="32.687" height="32.687" viewBox="0 0 32.687 32.687">
  <path id="Trazado_1760" data-name="Trazado 1760" d="M32.687-46.672a4.371,4.371,0,0,1-4.358,4.358H4.358A4.371,4.371,0,0,1,0-46.672v-23.97A4.371,4.371,0,0,1,4.358-75h23.97a4.371,4.371,0,0,1,4.358,4.358Z" transform="translate(0 75)" fill="#2d2d2c"/>
  <path id="Trazado_1761" data-name="Trazado 1761" d="M39.343-31.324a.592.592,0,0,0-.407.2v2.733a.586.586,0,0,0,.407.2c.234,0,.354-.2.354-.6v-1.912c0-.407-.12-.613-.354-.613" transform="translate(-21.967 50.359)" fill="#fff"/>
  <path id="Trazado_1762" data-name="Trazado 1762" d="M46.163-31.324c-.272,0-.407.206-.407.622v.415h.813V-30.7c0-.416-.136-.622-.405-.622" transform="translate(-25.814 50.359)" fill="#fff"/>
  <path id="Trazado_1763" data-name="Trazado 1763" d="M33.593-34.5H31.966v.795c0,.416.136.623.415.623a.349.349,0,0,0,.363-.326,5.145,5.145,0,0,0,.018-.55h.83v.119c0,.261-.011.441-.017.523a1.164,1.164,0,0,1-.19.487,1.13,1.13,0,0,1-.985.486,1.165,1.165,0,0,1-.984-.461,1.732,1.732,0,0,1-.261-1.053v-1.57a1.743,1.743,0,0,1,.251-1.055,1.158,1.158,0,0,1,.974-.46,1.131,1.131,0,0,1,.961.46,1.764,1.764,0,0,1,.251,1.055Zm-3.025.75a3.564,3.564,0,0,1-.082.9.643.643,0,0,1-.649.5,1.108,1.108,0,0,1-.842-.5v.435h-.814V-38.42h.814v1.964a1.1,1.1,0,0,1,.842-.487.645.645,0,0,1,.649.506,3.452,3.452,0,0,1,.082.9Zm-3.09,1.344h-.814v-.49a1.305,1.305,0,0,1-.929.552.5.5,0,0,1-.525-.333,2.319,2.319,0,0,1-.071-.667v-3.542h.814v3.3c0,.19,0,.29.006.316.021.126.084.191.192.191.164,0,.334-.126.514-.381v-3.424h.814Zm-3.207,0h-.905v-5.169h-.957v-.845h2.836v.845H24.27Zm9.792-6.882a1.924,1.924,0,0,0-1.345-.565c-1.878-.133-4.693-.133-4.693-.133h-.006s-2.815,0-4.694.133a1.928,1.928,0,0,0-1.344.565,2.88,2.88,0,0,0-.533,1.323,20.072,20.072,0,0,0-.134,2.157V-34.8a20.109,20.109,0,0,0,.134,2.158,2.875,2.875,0,0,0,.533,1.322,2.286,2.286,0,0,0,1.478.57c1.075.1,4.563.133,4.563.133s2.818,0,4.7-.139a1.923,1.923,0,0,0,1.345-.564,2.869,2.869,0,0,0,.533-1.322,20.174,20.174,0,0,0,.133-2.158v-1.012a20.136,20.136,0,0,0-.133-2.157,2.875,2.875,0,0,0-.533-1.323" transform="translate(-12.025 55.246)" fill="#fff"/>
  <path id="Trazado_1764" data-name="Trazado 1764" d="M29.118-48.882v-2.461l1.1-3.615h-.922l-.622,2.386-.647-2.386h-.959c.193.563.393,1.129.584,1.693a15.2,15.2,0,0,1,.558,1.922v2.461Z" transform="translate(-15.27 63.691)" fill="#fff"/>
  <path id="Trazado_1765" data-name="Trazado 1765" d="M34.721-50.163c0-.42.127-.628.393-.628s.391.21.391.628v1.9c0,.419-.128.628-.391.628s-.393-.209-.393-.628Zm.393,3.279a1.123,1.123,0,0,0,.958-.464,1.765,1.765,0,0,0,.256-1.065V-50a1.771,1.771,0,0,0-.256-1.065,1.119,1.119,0,0,0-.958-.465,1.115,1.115,0,0,0-.957.465A1.745,1.745,0,0,0,33.9-50v1.587a1.74,1.74,0,0,0,.257,1.065,1.118,1.118,0,0,0,.957.464" transform="translate(-19.125 61.758)" fill="#fff"/>
  <path id="Trazado_1766" data-name="Trazado 1766" d="M43.282-46.879v-4.528h-.821v3.462q-.273.384-.519.384c-.111,0-.176-.067-.193-.193a1.985,1.985,0,0,1-.01-.319v-3.334h-.82v3.582a2.275,2.275,0,0,0,.072.673.507.507,0,0,0,.53.336,1.323,1.323,0,0,0,.939-.557v.493Z" transform="translate(-23.086 61.689)" fill="#fff"/>
</svg>
