<svg id="Icon_social_instagram_32x32" xmlns="http://www.w3.org/2000/svg" width="32.687" height="32.687" viewBox="0 0 32.687 32.687">
  <path id="Trazado_1742" data-name="Trazado 1742" d="M32.687-46.672a4.371,4.371,0,0,1-4.358,4.358H4.358A4.371,4.371,0,0,1,0-46.672v-23.97A4.371,4.371,0,0,1,4.358-75h23.97a4.371,4.371,0,0,1,4.358,4.358Z" transform="translate(0 75)" fill="#2d2d2c"/>
  <path id="Trazado_1743" data-name="Trazado 1743" d="M33.406-43.989a2.741,2.741,0,0,1-2.7,2.761H23.945a2.741,2.741,0,0,1-2.7-2.761v-6.642a2.741,2.741,0,0,1,2.7-2.761H30.7a2.741,2.741,0,0,1,2.7,2.761Zm-2.58-10.73H23.82a3.959,3.959,0,0,0-3.906,3.989v6.84A3.96,3.96,0,0,0,23.82-39.9h7.006a3.96,3.96,0,0,0,3.906-3.989v-6.84a3.959,3.959,0,0,0-3.906-3.989" transform="translate(-11.234 63.559)" fill="#fff"/>
  <path id="Trazado_1744" data-name="Trazado 1744" d="M45.672-48.028a.85.85,0,0,1-.841.859.85.85,0,0,1-.841-.859.85.85,0,0,1,.841-.859.85.85,0,0,1,.841.859" transform="translate(-24.818 60.268)" fill="#fff"/>
  <path id="Trazado_1745" data-name="Trazado 1745" d="M32.09-40.187a2.43,2.43,0,0,1-2.4-2.455,2.43,2.43,0,0,1,2.4-2.455,2.43,2.43,0,0,1,2.4,2.455,2.43,2.43,0,0,1-2.4,2.455m0-6.26a3.766,3.766,0,0,0-3.725,3.8,3.766,3.766,0,0,0,3.725,3.805,3.766,3.766,0,0,0,3.725-3.8,3.766,3.766,0,0,0-3.725-3.805" transform="translate(-16.004 58.891)" fill="#fff"/>
</svg>
