<svg id="Icon_socual_vimeo_32x32" xmlns="http://www.w3.org/2000/svg" width="32.687" height="32.687" viewBox="0 0 32.687 32.687">
  <path id="Trazado_1740" data-name="Trazado 1740" d="M32.687-46.672a4.371,4.371,0,0,1-4.358,4.358H4.358A4.371,4.371,0,0,1,0-46.672v-23.97A4.371,4.371,0,0,1,4.358-75h23.97a4.371,4.371,0,0,1,4.358,4.358Z" transform="translate(0 75)" fill="#2d2d2c"/>
  <path id="Trazado_1741" data-name="Trazado 1741" d="M32-51.312q-3.343-.108-4.529,3.7a3.084,3.084,0,0,1,1.186-.248c.815,0,1.174.448,1.078,1.35a6.106,6.106,0,0,1-1.078,2.384q-1.007,1.564-1.509,1.564-.648,0-1.186-2.417-.18-.711-.645-3.63-.434-2.7-2.3-2.526a5.313,5.313,0,0,0-2.371,1.424q-1.153,1.03-2.337,2.061l.754.962a4.962,4.962,0,0,1,1.258-.748q.826,0,1.546,2.563.648,2.344,1.294,4.7.969,2.562,2.37,2.559,2.265,0,5.537-4.2,3.159-4.017,3.268-6.332.145-3.093-2.334-3.164" transform="translate(-10.328 61.637)" fill="#fff"/>
</svg>
