<svg id="Icon_social_Twutter_32x32" xmlns="http://www.w3.org/2000/svg" width="32.687" height="32.687" viewBox="0 0 32.687 32.687">
  <path id="Trazado_1758" data-name="Trazado 1758" d="M32.687-46.672a4.371,4.371,0,0,1-4.358,4.358H4.358A4.371,4.371,0,0,1,0-46.672v-23.97A4.371,4.371,0,0,1,4.358-75h23.97a4.371,4.371,0,0,1,4.358,4.358Z" transform="translate(0 75)" fill="#2d2d2c"/>
  <path id="Trazado_1759" data-name="Trazado 1759" d="M35.226-50.75a6.45,6.45,0,0,1-2.083.815A3.234,3.234,0,0,0,30.75-51a3.321,3.321,0,0,0-3.277,3.361,3.434,3.434,0,0,0,.085.766A9.229,9.229,0,0,1,20.8-50.383a3.422,3.422,0,0,0-.444,1.692,3.384,3.384,0,0,0,1.459,2.8,3.214,3.214,0,0,1-1.486-.419v.041a3.342,3.342,0,0,0,2.631,3.3,3.123,3.123,0,0,1-.864.118,3.2,3.2,0,0,1-.617-.059,3.29,3.29,0,0,0,3.063,2.333,6.472,6.472,0,0,1-4.072,1.44,6.522,6.522,0,0,1-.782-.046,9.127,9.127,0,0,0,5.025,1.509,9.391,9.391,0,0,0,9.328-9.565c0-.146,0-.292-.009-.435a6.738,6.738,0,0,0,1.635-1.74,6.4,6.4,0,0,1-1.883.529,3.354,3.354,0,0,0,1.442-1.859" transform="translate(-11.107 61.457)" fill="#fff"/>
</svg>
