<svg id="Llinkedin" xmlns="http://www.w3.org/2000/svg" width="32.687" height="32.687" viewBox="0 0 32.687 32.687">
  <path id="Trazado_1752" data-name="Trazado 1752" d="M32.687-46.672a4.371,4.371,0,0,1-4.358,4.358H4.358A4.371,4.371,0,0,1,0-46.672v-23.97A4.371,4.371,0,0,1,4.358-75h23.97a4.371,4.371,0,0,1,4.358,4.358Z" transform="translate(0 75)" fill="#2d2d2c"/>
  <path id="Trazado_1753" data-name="Trazado 1753" d="M21.487-35.564h3.231V-45.8H21.487Z" transform="translate(-12.123 58.526)" fill="#fff"/>
  <path id="Trazado_1754" data-name="Trazado 1754" d="M40.282-46.027a3.318,3.318,0,0,0-3.225,1.7v-1.606h-3.63c.047.853,0,10.237,0,10.237h3.63v-5.54a2.33,2.33,0,0,1,.079-.837,1.85,1.85,0,0,1,1.749-1.254c1.26,0,1.833.947,1.833,2.333v5.3h3.664v-5.692c0-3.171-1.8-4.643-4.1-4.643" transform="translate(-18.859 58.654)" fill="#fff"/>
  <path id="Trazado_1755" data-name="Trazado 1755" d="M22.5-56.89a1.8,1.8,0,0,0-1.974,1.777,1.786,1.786,0,0,0,1.928,1.775h.023a1.8,1.8,0,0,0,1.971-1.777A1.794,1.794,0,0,0,22.5-56.89" transform="translate(-11.581 64.782)" fill="#fff"/>
</svg>
