<svg id="logo-medium" xmlns="http://www.w3.org/2000/svg" xmlns:xlink="http://www.w3.org/1999/xlink" width="104.385" height="44.559" viewBox="0 0 104.385 44.559">
  <defs>
    <clipPath id="clip-path">
      <rect id="Rect치ngulo_1590" data-name="Rect치ngulo 1590" width="103.695" height="44.559" fill="none"/>
    </clipPath>
  </defs>
  <rect id="Rect치ngulo_1623" data-name="Rect치ngulo 1623" width="3.978" height="31.253" rx="1" transform="translate(47.005 3.367)" fill="#2d2d2c"/>
  <path id="Trazado_2091" data-name="Trazado 2091" d="M1018.141-898.119a11.048,11.048,0,0,0-8.239-3.615,11.752,11.752,0,0,0-8.473,3.557,12.188,12.188,0,0,0-3.456,8.578,12.251,12.251,0,0,0,3.454,8.6,11.726,11.726,0,0,0,8.474,3.58,11.048,11.048,0,0,0,8.239-3.615v2.744a.6.6,0,0,0,.6.6h2.774a.6.6,0,0,0,.6-.6V-900.76a.6.6,0,0,0-.6-.6h-2.774a.6.6,0,0,0-.6.6Zm-8.116,16.883a8.174,8.174,0,0,1-8.157-8.363,8.175,8.175,0,0,1,8.157-8.365,8.293,8.293,0,0,1,8.2,8.365A8.292,8.292,0,0,1,1010.026-881.236Z" transform="translate(-944.595 912.313)" fill="#2d2d2c"/>
  <path id="Trazado_2092" data-name="Trazado 2092" d="M1473.328-901.734a11.135,11.135,0,0,0-8.24,3.576v-2.6a.6.6,0,0,0-.6-.6h-2.774a.6.6,0,0,0-.6.6v32.4a.6.6,0,0,0,.6.6h2.774a.6.6,0,0,0,.6-.6V-881.02a11.091,11.091,0,0,0,8.24,3.6,11.735,11.735,0,0,0,8.473-3.564,12.249,12.249,0,0,0,3.455-8.612A12.047,12.047,0,0,0,1473.328-901.734Zm-.124,20.5a8.311,8.311,0,0,1-8.239-8.363,8.29,8.29,0,0,1,8.239-8.322,8.153,8.153,0,0,1,8.157,8.322A8.271,8.271,0,0,1,1473.2-881.236Z" transform="translate(-1380.872 912.313)" fill="#2d2d2c"/>
  <g id="Grupo_8477" data-name="Grupo 8477" transform="translate(0 3.367)">
    <path id="Trazado_2090" data-name="Trazado 2090" d="M122.133-1004.774l-2.607-1.08a.6.6,0,0,0-.78.314,11.4,11.4,0,0,1-2.2,3.345,11.052,11.052,0,0,1-8.108,3.418,11.052,11.052,0,0,1-8.108-3.418,11.836,11.836,0,0,1-3.19-8.211,11.918,11.918,0,0,1,3.423-8.551,10.97,10.97,0,0,1,7.8-3.16h.149a10.97,10.97,0,0,1,7.8,3.16,11.336,11.336,0,0,1,2.432,3.6.6.6,0,0,0,.78.313l2.6-1.075a.606.606,0,0,0,.319-.806,15.507,15.507,0,0,0-3.086-4.567,15.12,15.12,0,0,0-10.917-4.586H92.971a15.12,15.12,0,0,0-10.917,4.586,15.734,15.734,0,0,0-4.442,11.062,15.694,15.694,0,0,0,4.41,11.008,15.128,15.128,0,0,0,10.95,4.6h15.468a15.128,15.128,0,0,0,10.949-4.6,15.476,15.476,0,0,0,3.065-4.552A.605.605,0,0,0,122.133-1004.774Z" transform="translate(-77.611 1026.073)" fill="#2d2d2c"/>
  </g>
</svg>
