<svg id="Logo-Clap" xmlns="http://www.w3.org/2000/svg" width="69" height="56" viewBox="0 0 69 56">
  <g id="Grupo_8479" data-name="Grupo 8479" transform="translate(-86.83 -77.128)">
    <g id="Grupo_8478" data-name="Grupo 8478" transform="translate(96.987 88.076)">
      <path id="Trazado_2093" data-name="Trazado 2093" d="M145.57,111.318l-2.845-1.178a.653.653,0,0,0-.851.342,12.438,12.438,0,0,1-2.4,3.65,12.357,12.357,0,0,1-17.695,0,13.4,13.4,0,0,1,.254-18.29,11.971,11.971,0,0,1,8.512-3.448h.162a11.971,11.971,0,0,1,8.512,3.448,12.371,12.371,0,0,1,2.654,3.933.653.653,0,0,0,.851.342l2.834-1.174a.661.661,0,0,0,.349-.879,16.92,16.92,0,0,0-3.367-4.984,16.5,16.5,0,0,0-11.913-5H113.748a16.5,16.5,0,0,0-11.913,5,17.425,17.425,0,0,0-.035,24.083,16.507,16.507,0,0,0,11.948,5.017h16.879a16.507,16.507,0,0,0,11.948-5.017,16.883,16.883,0,0,0,3.345-4.967A.661.661,0,0,0,145.57,111.318Z" transform="translate(-96.987 -88.076)" fill="#2d2d2c"/>
    </g>
  </g>
  <rect id="Rectángulo_984" data-name="Rectángulo 984" width="69" height="56" fill="none"/>
</svg>
