<svg id="mensajes" xmlns="http://www.w3.org/2000/svg" width="30" height="30" viewBox="0 0 30 30">
  <rect id="Rectángulo_1165" data-name="Rectángulo 1165" width="30" height="30" fill="none"/>
  <g id="Trazado_1948" data-name="Trazado 1948" transform="translate(-3126.414 -7498.053)" fill="none" stroke-linecap="round" stroke-linejoin="round">
    <path d="M3149.947,7518.133l-3.62,4.955-3.017-4.955h-9.727a4.282,4.282,0,0,1-2.417-.616,2.975,2.975,0,0,1-.751-2.078v-9.4a4.116,4.116,0,0,1,1.116-2.2,4.577,4.577,0,0,1,2.428-.787h14.782a5.224,5.224,0,0,1,2.35.983,3.158,3.158,0,0,1,.817,2v10.273Z" stroke="none"/>
    <path d="M 3146.477783203125 7519.490234375 L 3148.33154296875 7516.953125 C 3148.4072265625 7516.849609375 3148.49267578125 7516.75341796875 3148.586669921875 7516.66650390625 L 3149.908935546875 7515.43994140625 L 3149.908935546875 7506.08984375 C 3149.892333984375 7505.869140625 3149.7978515625 7505.5673828125 3149.719970703125 7505.4912109375 C 3149.571044921875 7505.35205078125 3149.018798828125 7505.14599609375 3148.56298828125 7505.052734375 L 3133.991455078125 7505.052734375 C 3133.65283203125 7505.06640625 3133.0087890625 7505.20947265625 3132.8193359375 7505.36962890625 C 3132.684814453125 7505.48291015625 3132.500732421875 7505.88671875 3132.41455078125 7506.240234375 L 3132.41455078125 7515.4384765625 C 3132.41455078125 7515.470703125 3132.41552734375 7515.46337890625 3132.414306640625 7515.4873046875 C 3132.415771484375 7515.6494140625 3132.45361328125 7515.87109375 3132.498046875 7515.99658203125 C 3132.68017578125 7516.0625 3133.060791015625 7516.1337890625 3133.487060546875 7516.1337890625 C 3133.500244140625 7516.1337890625 3133.510498046875 7516.1337890625 3133.517333984375 7516.1337890625 C 3133.544189453125 7516.13232421875 3133.5556640625 7516.13232421875 3133.582275390625 7516.1328125 L 3143.3095703125 7516.1328125 C 3144.007568359375 7516.1328125 3144.65478515625 7516.49658203125 3145.017822265625 7517.0927734375 L 3146.477783203125 7519.490234375 M 3146.326416015625 7523.08740234375 L 3143.3095703125 7518.1328125 L 3133.582275390625 7518.1328125 C 3133.58251953125 7518.13037109375 3131.957763671875 7518.18994140625 3131.165283203125 7517.5166015625 C 3130.373291015625 7516.84228515625 3130.41455078125 7515.4384765625 3130.41455078125 7515.4384765625 L 3130.41455078125 7506.0400390625 C 3130.41455078125 7506.0400390625 3130.64453125 7504.58642578125 3131.53076171875 7503.83984375 C 3132.4169921875 7503.09326171875 3133.959228515625 7503.052734375 3133.959228515625 7503.052734375 L 3148.741455078125 7503.052734375 C 3148.741455078125 7503.052734375 3150.2998046875 7503.2890625 3151.091796875 7504.03564453125 C 3151.8837890625 7504.7822265625 3151.908935546875 7506.0400390625 3151.908935546875 7506.0400390625 L 3151.908935546875 7516.31298828125 L 3149.946533203125 7518.1328125 L 3146.326416015625 7523.08740234375 Z" stroke="none" fill="#2d2d2c"/>
  </g>
</svg>
